
<svg xmlns="http://www.w3.org/2000/svg" viewBox="0 0 55 55">
	<style type="text/css">
		.st0{fill:url(#SVGID_1_);stroke:#8F0093;stroke-miterlimit:10;}
		.st1{fill:url(#SVGID_2_);}
		.st2{fill:none;stroke:#720072;stroke-miterlimit:10;}
		.st3{fill:url(#SVGID_3_);}
		.st4{fill:url(#SVGID_4_);stroke:#8F0093;stroke-miterlimit:10;}
		.st5{fill:url(#SVGID_5_);}
		.st6{fill:url(#SVGID_6_);}
		.st7{fill:url(#SVGID_7_);stroke:#8F0093;stroke-miterlimit:10;}
		.st8{fill:url(#SVGID_8_);}
		.st9{fill:url(#SVGID_9_);}
		.st10{fill:url(#SVGID_10_);stroke:#8F0093;stroke-miterlimit:10;}
		.st11{fill:url(#SVGID_11_);}
		.st12{fill:url(#SVGID_12_);}
		.st13{filter:url(#dropshadow);}
	</style>
	<filter filterUnits="objectBoundingBox" id="dropshadow">
		<feOffset dx="0" dy="1" in="SourceAlpha" result="defappShadowOffsetOuter1"></feOffset>
		<feGaussianBlur stdDeviation=".75" in="defappShadowOffsetOuter1" result="defappShadowBlurOuter1"></feGaussianBlur>
		<feColorMatrix values="0 0 0 0 0   0 0 0 0 0   0 0 0 0 0  0 0 0 0.5 0" type="matrix" in="defappShadowBlurOuter1" result="defappShadowMatrixOuter1"></feColorMatrix>
		<feMerge>
			<feMergeNode in="defappShadowMatrixOuter1"/>
			<feMergeNode in="SourceGraphic"/>
		</feMerge>
	</filter>
	<radialGradient id="SVGID_1_" cx="-18.6536" cy="-29.2576" r="12.8938" fx="-18.4027" fy="-20.0765" gradientTransform="matrix(0.9571 0.2899 0.2765 -0.9133 51.0107 14.9803)" gradientUnits="userSpaceOnUse">
		<stop  offset="0" style="stop-color:#F924FF"/>
		<stop  offset="0.3259" style="stop-color:#C800D3"/>
		<stop  offset="1" style="stop-color:#6E0077"/>
	</radialGradient>
	<radialGradient id="SVGID_2_" cx="-16.0361" cy="-164.7155" r="10.0061" fx="-15.8414" fy="-157.5906" gradientTransform="matrix(0.9583 0.2854 0.2169 -0.7014 77.4857 -79.5777)" gradientUnits="userSpaceOnUse">
		<stop  offset="0" style="stop-color:#D600D6"/>
		<stop  offset="0.6486" style="stop-color:#AF00AF"/>
		<stop  offset="1" style="stop-color:#9E009E"/>
	</radialGradient>
	<radialGradient id="SVGID_3_" cx="49.4593" cy="-922.9507" r="12.1425" fx="45.4554" fy="-934.4141" gradientTransform="matrix(0.9255 0.3687 0.1353 -0.2799 105.426 -245.2028)" gradientUnits="userSpaceOnUse">
		<stop  offset="0.2085" style="stop-color:#E589E5"/>
		<stop  offset="1" style="stop-color:#D7C1A2;stop-opacity:0"/>
	</radialGradient>
	<radialGradient id="SVGID_4_" cx="-19.026" cy="-10.1534" r="12.8938" fx="-18.7751" fy="-0.9723" gradientTransform="matrix(0.9571 0.2899 0.2765 -0.9133 51.0113 14.9783)" gradientUnits="userSpaceOnUse">
		<stop  offset="0" style="stop-color:#F924FF"/>
		<stop  offset="0.3259" style="stop-color:#C800D3"/>
		<stop  offset="1" style="stop-color:#6E0077"/>
	</radialGradient>
	<radialGradient id="SVGID_5_" cx="-16.5178" cy="-139.8805" r="10.0061" fx="-16.323" fy="-132.7556" gradientTransform="matrix(0.9583 0.2854 0.2169 -0.7014 77.4857 -79.5777)" gradientUnits="userSpaceOnUse">
		<stop  offset="0" style="stop-color:#D600D6"/>
		<stop  offset="0.6486" style="stop-color:#AF00AF"/>
		<stop  offset="1" style="stop-color:#9E009E"/>
	</radialGradient>
	<radialGradient id="SVGID_6_" cx="46.234" cy="-864.4755" r="12.1425" fx="42.2301" fy="-875.9388" gradientTransform="matrix(0.9255 0.3687 0.1353 -0.2799 105.426 -245.2028)" gradientUnits="userSpaceOnUse">
		<stop  offset="0.2085" style="stop-color:#E589E5"/>
		<stop  offset="1" style="stop-color:#D7C1A2;stop-opacity:0"/>
	</radialGradient>
	<radialGradient id="SVGID_7_" cx="-37.4526" cy="-10.5429" r="12.8938" fx="-37.2017" fy="-1.3618" gradientTransform="matrix(0.9571 0.2899 0.2765 -0.9133 51.0113 14.9783)" gradientUnits="userSpaceOnUse">
		<stop  offset="0" style="stop-color:#F924FF"/>
		<stop  offset="0.3259" style="stop-color:#C800D3"/>
		<stop  offset="1" style="stop-color:#6E0077"/>
	</radialGradient>
		<radialGradient id="SVGID_8_" cx="-34.9452" cy="-140.27" r="10.0061" fx="-34.7505" fy="-133.1451" gradientTransform="matrix(0.9583 0.2854 0.2169 -0.7014 77.4857 -79.5777)" gradientUnits="userSpaceOnUse">
		<stop  offset="0" style="stop-color:#D600D6"/>
		<stop  offset="0.6486" style="stop-color:#AF00AF"/>
		<stop  offset="1" style="stop-color:#9E009E"/>
	</radialGradient>
		<radialGradient id="SVGID_9_" cx="27.9738" cy="-870.7139" r="12.1425" fx="23.9699" fy="-882.1773" gradientTransform="matrix(0.9255 0.3687 0.1353 -0.2799 105.426 -245.2028)" gradientUnits="userSpaceOnUse">
		<stop  offset="0.2085" style="stop-color:#E589E5"/>
		<stop  offset="1" style="stop-color:#D7C1A2;stop-opacity:0"/>
	</radialGradient>
	<radialGradient id="SVGID_10_" cx="-0.3124" cy="-28.8563" r="12.8938" fx="-6.147525e-02" fy="-19.6752" gradientTransform="matrix(0.9571 0.2899 0.2765 -0.9133 51.0107 14.9803)" gradientUnits="userSpaceOnUse">
		<stop  offset="0" style="stop-color:#F924FF"/>
		<stop  offset="0.3259" style="stop-color:#C800D3"/>
		<stop  offset="1" style="stop-color:#6E0077"/>
	</radialGradient>
	<radialGradient id="SVGID_11_" cx="2.306" cy="-164.3101" r="10.0061" fx="2.5007" fy="-157.1852" gradientTransform="matrix(0.9583 0.2854 0.2169 -0.7014 77.4857 -79.5777)" gradientUnits="userSpaceOnUse">
		<stop  offset="0" style="stop-color:#D600D6"/>
		<stop  offset="0.6486" style="stop-color:#AF00AF"/>
		<stop  offset="1" style="stop-color:#9E009E"/>
	</radialGradient>
	<radialGradient id="SVGID_12_" cx="67.633" cy="-916.6995" r="12.1425" fx="63.6291" fy="-928.1629" gradientTransform="matrix(0.9255 0.3687 0.1353 -0.2799 105.426 -245.2028)" gradientUnits="userSpaceOnUse">
		<stop  offset="0.2085" style="stop-color:#E589E5"/>
		<stop  offset="1" style="stop-color:#D7C1A2;stop-opacity:0"/>
	</radialGradient>
		
	<g class="st13">
		<path class="st0" d="M29.6,46.3l-13.7-3.9c-0.8-0.2-1.2-0.9-1-1.7l3.8-13.6c0.2-0.8,0.9-1.2,1.7-1l13.7,3.9c0.8,0.2,1.2,0.9,1,1.6
			l-3.9,13.7C31.1,46.2,30.4,46.5,29.6,46.3z"/>
		<path class="st1" d="M25.7,34.6c3.7,1,6.8,0.6,8.5-0.7l0.7-2.1c0.1-0.5-0.2-1.5-1-1.7l-13.3-3.7c-0.8-0.2-1.5,0.5-1.7,1l-0.7,2.1
			C19.1,31.5,22,33.6,25.7,34.6z"/>
		<path class="st2" d="M29.6,45.6l-13.4-3.8c-0.4-0.2-0.7-0.6-0.6-1l3.8-13.4c0.2-0.4,0.6-0.7,1-0.6l13.4,3.8c0.4,0.2,0.7,0.6,0.6,1
			l-3.8,13.4C30.5,45.6,30.1,45.9,29.6,45.6z"/>
		<path class="st3" d="M25.6,34.6c3.7,1,6.9,0.7,8.6-0.6l0.5-1.9c0.2-0.9,0.1-1.8-1.1-2l-13-3.6c-1-0.3-1.6,0.3-1.8,1.2l-0.6,2
			C19,31.4,21.9,33.6,25.6,34.6z"/>
		<path class="st4" d="M34.5,28.8l-13.7-3.9c-0.8-0.2-1.2-0.9-1-1.7l3.8-13.6c0.2-0.8,0.9-1.2,1.7-1l13.7,3.9c0.8,0.2,1.2,0.9,1,1.6
			l-3.9,13.7C36.1,28.6,35.3,29,34.5,28.8z"/>
		<path class="st5" d="M30.6,17.1c3.7,1,6.8,0.6,8.5-0.7l0.7-2.1c0.1-0.5-0.2-1.5-1-1.7L25.6,8.9c-0.8-0.2-1.5,0.5-1.7,1L23.2,12
			C24.1,13.9,27,16,30.6,17.1z"/>
		<path class="st2" d="M34.6,28.1l-13.4-3.8c-0.4-0.2-0.7-0.6-0.6-1l3.8-13.4c0.2-0.4,0.6-0.7,1-0.6l13.4,3.8c0.4,0.2,0.7,0.6,0.6,1
			l-3.8,13.4C35.4,28,35,28.3,34.6,28.1z"/>
		<path class="st6" d="M30.5,17.1c3.7,1,6.9,0.7,8.6-0.6l0.5-1.9c0.2-0.9,0.1-1.8-1.1-2l-13-3.6c-1-0.3-1.6,0.3-1.8,1.2l-0.6,2
			C24,13.9,26.9,16,30.5,17.1z"/>
		<path class="st7" d="M16.8,23.8L3.1,19.9c-0.8-0.2-1.2-0.9-1-1.7L6,4.7c0.2-0.8,0.9-1.2,1.7-1l13.7,3.9c0.8,0.2,1.2,0.9,1,1.6
			l-3.9,13.7C18.3,23.6,17.6,24,16.8,23.8z"/>
		<path class="st8" d="M12.9,12.1c3.7,1,6.8,0.6,8.5-0.7L22,9.3c0.1-0.5-0.2-1.5-1-1.7L7.8,3.9c-0.8-0.2-1.5,0.5-1.7,1L5.5,7
			C6.3,8.9,9.2,11.1,12.9,12.1z"/>
		<path class="st2" d="M16.8,23.1L3.4,19.3c-0.4-0.2-0.7-0.6-0.6-1L6.6,4.9c0.2-0.4,0.6-0.7,1-0.6L21,8.1c0.4,0.2,0.7,0.6,0.6,1
			l-3.8,13.4C17.7,23.1,17.3,23.3,16.8,23.1z"/>
		<path class="st9" d="M12.8,12.1c3.7,1,6.9,0.7,8.6-0.6L22,9.6c0.2-0.9,0.1-1.8-1.1-2l-13-3.6C6.9,3.6,6.2,4.2,6,5.1l-0.6,2
			C6.2,8.9,9.1,11,12.8,12.1z"/>
		<path class="st10" d="M47.3,51.3l-13.7-3.9c-0.8-0.2-1.2-0.9-1-1.7l3.8-13.6c0.2-0.8,0.9-1.2,1.7-1l13.7,3.9c0.8,0.2,1.2,0.9,1,1.6
			L49,50.3C48.8,51.1,48.1,51.5,47.3,51.3z"/>
		<path class="st11" d="M43.4,39.6c3.7,1,6.8,0.6,8.5-0.7l0.7-2.1c0.1-0.5-0.2-1.5-1-1.7l-13.3-3.7c-0.8-0.2-1.5,0.5-1.7,1l-0.7,2.1
			C36.8,36.4,39.7,38.6,43.4,39.6z"/>
		<path class="st2" d="M47.3,50.6l-13.4-3.8c-0.4-0.2-0.7-0.6-0.6-1l3.8-13.4c0.2-0.4,0.6-0.7,1-0.6l13.4,3.8c0.4,0.2,0.7,0.6,0.6,1
			L48.3,50C48.2,50.6,47.8,50.8,47.3,50.6z"/>
		<path class="st12" d="M43.3,39.6c3.7,1,6.9,0.7,8.6-0.6l0.5-1.9c0.2-0.9,0.1-1.8-1.1-2l-13-3.6c-1-0.3-1.6,0.3-1.8,1.2l-0.6,2
			C36.7,36.4,39.6,38.5,43.3,39.6z"/>
	</g>
</svg>
