<svg xmlns="http://www.w3.org/2000/svg" width="0" height="0">

	<svg id="icon-arrow-left" viewBox="0 0 21 21">
		<style type="text/css">
			.st0{fill:#fff;}
		</style>
		<polygon class="st0" points="18.2,10.3 2.8,3.6 6.8,10.3 2.8,17.4 "/>
	</svg>

	<svg id="icon-arrow-right" viewBox="0 0 21 21">
		<style type="text/css">
			.st0{fill:#fff;}
		</style>
		<polygon class="st0" points="2.8,10.7 18.2,17.4 14.2,10.7 18.2,3.6 "/>
	</svg>

	<svg id="icon-arrow-up" viewBox="0 0 21 21">
		<style type="text/css">
			.st0{fill:#fff;}
		</style>
		<polygon class="st0" points="10.3,2.8 3.6,18.2 10.3,14.2 17.4,18.2 "/>
	</svg>

	<svg id="icon-arrow-down" viewBox="0 0 21 21">
		<style type="text/css">
			.st0{fill:#fff;}
		</style>
		<polygon class="st0" points="10.7,18.2 17.4,2.8 10.7,6.8 3.6,2.8 "/>
	</svg>

	<svg id="icon-space" viewBox="0 0 33 21">
		<style type="text/css">
			.st0{fill:#fff;}
		</style>
		<path class="st0" d="M6.8,8.5H4.4V7.8c0-0.3,0-0.6-0.1-0.7C4.2,7,4.1,7,4,7C3.8,7,3.7,7,3.6,7.2C3.5,7.3,3.5,7.5,3.5,7.7c0,0.3,0,0.6,0.1,0.8
			C3.7,8.7,4,8.9,4.4,9.1c1.2,0.7,1.9,1.3,2.2,1.7C6.9,11.3,7,12,7,13c0,0.7-0.1,1.2-0.3,1.6c-0.2,0.3-0.5,0.6-1,0.9s-1,0.3-1.7,0.3
			c-0.7,0-1.3-0.1-1.8-0.4c-0.5-0.3-0.8-0.6-1-1c-0.2-0.4-0.2-1-0.2-1.7v-0.7h2.4v1.2c0,0.4,0,0.6,0.1,0.7S3.8,14,4,14
			c0.2,0,0.3-0.1,0.4-0.2c0.1-0.1,0.1-0.3,0.1-0.6c0-0.6-0.1-1-0.2-1.2c-0.2-0.2-0.6-0.5-1.2-0.9c-0.7-0.4-1.1-0.7-1.3-0.9
			C1.6,10,1.4,9.7,1.3,9.4C1.1,9.1,1,8.6,1,8.1c0-0.8,0.1-1.3,0.3-1.7c0.2-0.4,0.5-0.6,1-0.8c0.4-0.2,1-0.3,1.6-0.3
			c0.7,0,1.3,0.1,1.7,0.3c0.5,0.2,0.8,0.5,1,0.8c0.2,0.3,0.2,0.9,0.2,1.7V8.5z"/>
		<path class="st0" d="M7.8,5.5h2.6c0.7,0,1.3,0.1,1.6,0.2s0.7,0.3,0.9,0.5c0.2,0.2,0.3,0.5,0.4,0.8s0.1,0.8,0.1,1.4v0.9c0,0.6-0.1,1.1-0.2,1.4
			c-0.1,0.3-0.4,0.5-0.7,0.7c-0.4,0.2-0.8,0.2-1.4,0.2h-0.7v4H7.8V5.5z M10.5,7.2v2.6c0.1,0,0.1,0,0.2,0c0.2,0,0.4-0.1,0.5-0.2
			s0.1-0.4,0.1-0.7V8c0-0.3-0.1-0.6-0.2-0.7S10.8,7.2,10.5,7.2z"/>
		<path class="st0" d="M18.4,5.5l1.5,10.1h-2.7l-0.1-1.8h-0.9L16,15.5h-2.7l1.3-10.1H18.4z M17,11.9c-0.1-1.1-0.3-2.5-0.4-4.2
			c-0.3,1.9-0.4,3.3-0.5,4.2H17z"/>
		<path class="st0" d="M26.5,9.9h-2.6V8.1c0-0.5,0-0.8-0.1-1C23.7,7,23.6,7,23.4,7C23.2,7,23.1,7,23,7.2c-0.1,0.2-0.1,0.5-0.1,1v4.7
			c0,0.5,0,0.8,0.1,1c0.1,0.1,0.2,0.2,0.4,0.2c0.2,0,0.3-0.1,0.4-0.2c0.1-0.2,0.1-0.5,0.1-1.1v-1.3h2.6v0.4c0,1-0.1,1.8-0.2,2.2
			c-0.1,0.4-0.5,0.8-1,1.1c-0.5,0.3-1.1,0.5-1.9,0.5c-0.8,0-1.4-0.1-1.9-0.4s-0.8-0.7-1-1.2c-0.2-0.5-0.2-1.2-0.2-2.2V9
			c0-0.7,0-1.3,0.1-1.6c0-0.4,0.2-0.7,0.4-1c0.2-0.3,0.6-0.6,1-0.8s0.9-0.3,1.5-0.3c0.8,0,1.4,0.1,1.9,0.4c0.5,0.3,0.8,0.7,1,1.1
			c0.2,0.4,0.2,1.1,0.2,2.1V9.9z"/>
		<path class="st0" d="M27.4,5.5h4.4v2H30v1.9h1.6v1.9H30v2.2H32v2h-4.5V5.5z"/>
	</svg>

	<svg id="icon-shift" viewBox="0 0 29 21">
		<style type="text/css">
			.st0{fill:#fff;}
		</style>
		<path class="st0" d="M6.8,8.5H4.4V7.8c0-0.3,0-0.6-0.1-0.7C4.2,7,4.1,7,4,7C3.8,7,3.7,7,3.6,7.2C3.5,7.3,3.5,7.5,3.5,7.7c0,0.3,0,0.6,0.1,0.8
			C3.7,8.7,4,8.9,4.4,9.1c1.2,0.7,1.9,1.3,2.2,1.7C6.9,11.3,7,12,7,13c0,0.7-0.1,1.2-0.3,1.6c-0.2,0.3-0.5,0.6-1,0.9s-1,0.3-1.7,0.3
			c-0.7,0-1.3-0.1-1.8-0.4c-0.5-0.3-0.8-0.6-1-1c-0.2-0.4-0.2-1-0.2-1.7v-0.7h2.4v1.2c0,0.4,0,0.6,0.1,0.7C3.7,14,3.9,14,4,14
			c0.2,0,0.3-0.1,0.4-0.2s0.1-0.3,0.1-0.6c0-0.6-0.1-1-0.2-1.2c-0.2-0.2-0.6-0.5-1.2-0.9c-0.6-0.4-1.1-0.7-1.3-0.9
			C1.6,10,1.4,9.7,1.3,9.4S1.1,8.6,1.1,8.1c0-0.8,0.1-1.3,0.3-1.7s0.5-0.6,1-0.8c0.4-0.2,1-0.3,1.6-0.3c0.7,0,1.3,0.1,1.7,0.3
			s0.8,0.5,0.9,0.8s0.2,0.9,0.2,1.7V8.5z"/>
		<path class="st0" d="M13.8,5.5v10h-2.6v-4.2h-0.8v4.2H7.8v-10h2.6v3.6h0.8V5.5H13.8z"/>
		<path class="st0" d="M17.5,5.5v10h-2.6v-10H17.5z"/>
		<path class="st0" d="M18.5,5.5H23v2h-1.8v1.9h1.6v1.9h-1.6v4.2h-2.6V5.5z"/>
		<path class="st0" d="M28.9,5.5v2h-1.5v8h-2.6v-8h-1.5v-2H28.9z"/>
	</svg>

	<svg id="icon-p" viewBox="0 0 21 21">
		<style type="text/css">
			.st0{fill:#fff;}
		</style>
		<path class="st0" d="M6.3,3h3.9c1.1,0,1.9,0.1,2.5,0.3c0.6,0.2,1,0.4,1.3,0.7s0.5,0.7,0.6,1.1c0.1,0.4,0.2,1.1,0.2,2.1v1.3c0,1-0.1,1.7-0.3,2.1
		s-0.6,0.8-1.1,1c-0.5,0.2-1.2,0.4-2.1,0.4h-1V18H6.3V3z M10.2,5.6v3.8c0.1,0,0.2,0,0.3,0c0.4,0,0.6-0.1,0.7-0.3s0.2-0.5,0.2-1.1
		V6.8c0-0.5-0.1-0.8-0.2-1C11,5.6,10.7,5.6,10.2,5.6z"/>
	</svg>

	<svg id="icon-escape" viewBox="0 0 21 21">
		<style type="text/css">
			.st0{fill:#fff;}
		</style>
		<path class="st0" d="M0.9,5.1h4.7v2.1H3.7v2.1h1.7v2.1H3.7v2.4h2v2.1H0.9V5.1z"/>
		<path class="st0" d="M12.5,8.4H9.9V7.6c0-0.4,0-0.6-0.1-0.7c0-0.1-0.2-0.1-0.3-0.1c-0.2,0-0.3,0.1-0.4,0.2C8.9,7.1,8.9,7.3,8.9,7.6
			c0,0.4,0,0.6,0.1,0.8S9.4,8.8,9.8,9c1.2,0.7,2.1,1.4,2.4,1.8c0.3,0.5,0.5,1.2,0.5,2.3c0,0.8-0.1,1.3-0.3,1.7
			c-0.2,0.4-0.5,0.7-1.1,0.9c-0.5,0.2-1.1,0.4-1.8,0.4c-0.7,0-1.4-0.1-1.9-0.4c-0.5-0.3-0.9-0.6-1.1-1.1c-0.2-0.5-0.2-1.1-0.2-1.9V12
			H9v1.3c0,0.4,0,0.7,0.1,0.8c0.1,0.1,0.2,0.2,0.4,0.2s0.3-0.1,0.4-0.2s0.1-0.4,0.1-0.6c0-0.6-0.1-1.1-0.3-1.2c-0.2-0.2-0.6-0.5-1.3-1
			c-0.7-0.5-1.1-0.8-1.4-1C6.8,10,6.7,9.7,6.5,9.4C6.4,9,6.3,8.6,6.3,8c0-0.8,0.1-1.4,0.3-1.8c0.2-0.4,0.5-0.7,1-0.9s1.1-0.3,1.7-0.3
			c0.7,0,1.4,0.1,1.9,0.4c0.5,0.2,0.9,0.5,1,0.9s0.2,1,0.2,1.8L12.5,8.4L12.5,8.4z"/>
		<path class="st0" d="M20.1,9.8h-2.8V8c0-0.5,0-0.9-0.1-1c0-0.1-0.2-0.2-0.4-0.2S16.4,6.9,16.3,7c0,0.2-0.1,0.5-0.1,1.1v5
			c0,0.5,0,0.9,0.1,1c0,0.2,0.2,0.2,0.4,0.2s0.4-0.1,0.4-0.2c0-0.2,0.1-0.5,0.1-1.1v-1.4h2.8V12c0,1.1-0.1,1.9-0.2,2.4
			c-0.1,0.5-0.5,0.9-1.1,1.2s-1.2,0.5-2,0.5c-0.8,0-1.5-0.1-2.1-0.5c-0.5-0.3-0.9-0.7-1.1-1.2c-0.2-0.5-0.3-1.3-0.3-2.4V8.9
			c0-0.8,0-1.4,0.1-1.7c0-0.4,0.2-0.8,0.5-1.1c0.3-0.4,0.6-0.6,1.1-0.9c0.5-0.2,1-0.3,1.6-0.3c0.8,0,1.5,0.2,2.1,0.5s0.9,0.7,1.1,1.2
			C20,7,20,7.8,20,8.8L20.1,9.8L20.1,9.8z"/>
	</svg>

	<svg id="small-logo" viewBox="0 0 91 25">
		<style type="text/css">
			.st0{fill:#333;opacity:.65}
		</style>
		<polygon class="st0" points="15,0 0,0 0,5.6 4.5,5.6 4.5,24.9 10.5,24.9 10.5,5.6 15,5.6 "/>
		<rect class="st0" x="68.4" width="6" height="24.9"/>
		<polygon class="st0" points="48.5,0 33.5,0 33.5,5.6 37.9,5.6 37.9,24.9 43.9,24.9 43.9,5.6 48.5,5.6 "/>
		<path class="st0" d="M32.4,19.2h-9.5v-4.8h3.6L30,8.8h-7.1V5.7h9V0h-15v5.1v0.6c0,0,0,11.2,0,13.6s0.9,5.6,6,5.6s13,0,13,0L32.4,19.2z"/>
		<path class="st0" d="M63.3,10.9c0.7-0.5,2.6-1.9,2.6-5.3c0-2.8-2.3-5.6-6.2-5.6h-9.7v5.1v0.6v19.2h6V5.6h1.4c2.6,0,3.1,1.2,3,2.3
			c0,1.1-1.4,2.4-3.6,3c2.4,0.6,3.8,3.1,3.8,6.5c0,7.4,0,7.4,0,7.4h5.8c0,0,0-4.8,0-7.6C66.6,13.8,65,11.3,63.3,10.9z"/>
		<path class="st0" d="M84.8,5.6h2.6L90.7,0h-8.6C77.4,0,76,3.4,76,5.1c0,2.1,0.6,2.7,1.6,4.1c1.6,2.2,4,5.2,5.2,6.7c1.8,2.2,1,3.1-0.3,3.1
			s-6.3,0-6.3,0v5.9c0,0,3.8,0,9,0c4.6,0,7.2-5.3,4.1-9.3c-2.8-3.7-4.7-6-5.6-7.1C82.5,6.7,82.9,5.6,84.8,5.6z"/>
	</svg>

</svg>