<svg xmlns="http://www.w3.org/2000/svg" width="0" height="0">

	<svg id="icon-arrow-left" viewBox="0 0 51 51">
		<style type="text/css">
			.st0{fill:#fff;}
		</style>
		<polygon class="st0" points="41,21 2,4 12,21 2,39 "/>
	</svg>

	<svg id="icon-arrow-right" viewBox="0 0 51 51">
		<style type="text/css">
			.st0{fill:#fff;}
		</style>
		<polygon class="st0" points="2,22 41,39 31,22 41,4 "/>
	</svg>

	<svg id="icon-arrow-up" viewBox="0 0 51 51">
		<style type="text/css">
			.st0{fill:#fff;}
		</style>
		<polygon class="st0" points="21,2 4,41 21,31 39,41 "/>
	</svg>

	<svg id="icon-arrow-down" viewBox="0 0 51 51">
		<style type="text/css">
			.st0{fill:#fff;}
		</style>
		<polygon class="st0" points="22,41 39,2 22,12 4,2 "/>
	</svg>

	<svg id="icon-space" viewBox="0 0 51 51">
	</svg>

	<svg id="icon-shift" viewBox="0 0 51 51">
	</svg>

	<svg id="icon-p" viewBox="0 0 51 51">
	</svg>

	<svg id="icon-escape" viewBox="0 0 51 51">
		<style type="text/css">
			.st0{fill:#fff;}
		</style>
		<path class="st0" d="M4.4,13.7h10.3v4.7h-4.1v4.5h3.8v4.5h-3.8v5.2H15v4.7H4.4V13.7z"/>
		<path class="st0" d="M29.8,20.8h-5.7v-1.8c0-0.8-0.1-1.3-0.2-1.6c-0.1-0.2-0.4-0.3-0.7-0.3c-0.4,0-0.7,0.2-0.8,0.5C22.1,17.9,22,18.4,22,19
			c0,0.8,0.1,1.4,0.3,1.8c0.2,0.4,0.8,0.9,1.7,1.4c2.7,1.6,4.5,3,5.2,4c0.7,1,1.1,2.7,1.1,5c0,1.7-0.2,2.9-0.6,3.7s-1.2,1.5-2.3,2
			c-1.1,0.5-2.4,0.8-3.9,0.8c-1.6,0-3.1-0.3-4.2-0.9c-1.2-0.6-1.9-1.4-2.3-2.4c-0.4-1-0.5-2.3-0.5-4.1v-1.5h5.7v2.9
			c0,0.9,0.1,1.5,0.2,1.7c0.2,0.3,0.4,0.4,0.9,0.4s0.7-0.2,0.9-0.5c0.2-0.3,0.3-0.8,0.3-1.4c0-1.4-0.2-2.3-0.6-2.7
			c-0.4-0.4-1.3-1.1-2.9-2.1c-1.5-1-2.5-1.7-3-2.2c-0.5-0.5-0.9-1.1-1.2-1.9s-0.5-1.8-0.5-3.1c0-1.8,0.2-3.1,0.7-4
			c0.5-0.8,1.2-1.5,2.2-2s2.3-0.7,3.7-0.7c1.6,0,3,0.3,4.1,0.8c1.1,0.5,1.9,1.2,2.2,2s0.5,2.1,0.5,4V20.8z"/>
		<path class="st0" d="M46.6,24h-6.2v-4.1c0-1.2-0.1-1.9-0.2-2.2c-0.1-0.3-0.4-0.4-0.9-0.4c-0.5,0-0.8,0.2-1,0.5c-0.1,0.4-0.2,1.1-0.2,2.3v11
			c0,1.1,0.1,1.9,0.2,2.2c0.1,0.4,0.4,0.5,0.9,0.5c0.5,0,0.8-0.2,0.9-0.5c0.1-0.4,0.2-1.2,0.2-2.5v-3h6.2v0.9c0,2.4-0.2,4.2-0.5,5.2
			s-1.1,1.9-2.3,2.7s-2.6,1.2-4.4,1.2c-1.8,0-3.3-0.3-4.5-1s-1.9-1.6-2.3-2.7s-0.6-2.9-0.6-5.2V22c0-1.7,0.1-3,0.2-3.8s0.5-1.7,1-2.5
			c0.6-0.8,1.4-1.4,2.4-1.9c1-0.5,2.2-0.7,3.5-0.7c1.8,0,3.3,0.4,4.5,1.1c1.2,0.7,2,1.6,2.3,2.6c0.4,1,0.6,2.7,0.6,4.9V24z"/>
	</svg>

	<svg id="small-logo" viewBox="0 0 91 25">
		<style type="text/css">
			.st0{fill:#333;opacity:.65}
		</style>
		<polygon class="st0" points="15,0 0,0 0,5.6 4.5,5.6 4.5,24.9 10.5,24.9 10.5,5.6 15,5.6 "/>
		<rect class="st0" x="68.4" width="6" height="24.9"/>
		<polygon class="st0" points="48.5,0 33.5,0 33.5,5.6 37.9,5.6 37.9,24.9 43.9,24.9 43.9,5.6 48.5,5.6 "/>
		<path class="st0" d="M32.4,19.2h-9.5v-4.8h3.6L30,8.8h-7.1V5.7h9V0h-15v5.1v0.6c0,0,0,11.2,0,13.6s0.9,5.6,6,5.6s13,0,13,0L32.4,19.2z"/>
		<path class="st0" d="M63.3,10.9c0.7-0.5,2.6-1.9,2.6-5.3c0-2.8-2.3-5.6-6.2-5.6h-9.7v5.1v0.6v19.2h6V5.6h1.4c2.6,0,3.1,1.2,3,2.3
			c0,1.1-1.4,2.4-3.6,3c2.4,0.6,3.8,3.1,3.8,6.5c0,7.4,0,7.4,0,7.4h5.8c0,0,0-4.8,0-7.6C66.6,13.8,65,11.3,63.3,10.9z"/>
		<path class="st0" d="M84.8,5.6h2.6L90.7,0h-8.6C77.4,0,76,3.4,76,5.1c0,2.1,0.6,2.7,1.6,4.1c1.6,2.2,4,5.2,5.2,6.7c1.8,2.2,1,3.1-0.3,3.1
			s-6.3,0-6.3,0v5.9c0,0,3.8,0,9,0c4.6,0,7.2-5.3,4.1-9.3c-2.8-3.7-4.7-6-5.6-7.1C82.5,6.7,82.9,5.6,84.8,5.6z"/>
	</svg>

	<svg id="tetris-logo" viewBox="0 0 210 60">
		<style type="text/css">
			.st0{fill:none;stroke:#fff;stroke-width:1.5;}
		</style>
		<polygon class="st0" points="36.2,1.8 2.1,1.8 2.1,14.6 12.2,14.6 12.2,58.2 25.9,58.2 25.9,14.6 36.2,14.6 "/>
		<rect x="157.4" y="1.8" class="st0" width="13.7" height="56.4"/>
		<polygon class="st0" points="112.2,1.8 78,1.8 78,14.6 88.1,14.6 88.1,58.2 101.8,58.2 101.8,14.6 112.2,14.6 "/>
		<path class="st0" d="M75.6,45.4H54V34.6h8.1l8-12.8H54v-7.1h20.4V1.8H40.3v11.5v1.4c0,0,0,25.4,0,30.8S42.4,58.2,54,58.2
			s29.5,0,29.5,0L75.6,45.4z"/>
		<path class="st0" d="M145.7,26.6c1.7-1.1,6-4.4,6-12c0-6.4-5.2-12.8-14.1-12.8l-21.9,0v11.5v1.4v43.5h13.7V14.6h3.2
			c6-0.1,7,2.8,6.9,5.3c-0.1,2.4-3.2,5.4-8.1,6.8c5.4,1.4,8.6,7,8.6,14.8c0,16.7,0,16.7,0,16.7h13.2c0,0,0-11,0-17.3
			C153.3,33.2,149.6,27.4,145.7,26.6z"/>
		<path class="st0" d="M194.5,14.6h5.8l7.6-12.8h-19.5c-10.6,0-13.9,7.7-13.9,11.5c0,4.8,1.4,6.1,3.7,9.3c3.6,5,9.1,11.7,11.8,15.1
			c4,5,2.3,7.1-0.7,7.1c-3,0-14.2,0-14.2,0v13.4c0,0,8.7,0,20.5,0c10.5,0,16.4-12,9.4-21.2c-6.3-8.4-10.7-13.6-12.6-16.1
			C189.3,17,190.2,14.6,194.5,14.6z"/>
	</svg>

</svg>